<svg width="24" height="24" viewBox="0 0 24 24" fill="none" xmlns="http://www.w3.org/2000/svg">
<path d="M12 0C18.6274 0 24 5.37258 24 12C24 18.6274 18.6274 24 12 24C5.37258 24 0 18.6274 0 12C0 5.37258 5.37258 0 12 0ZM17.8965 8.22559C18.098 7.4178 17.5883 7.05079 17.0605 7.29004L5.50098 11.7471C4.71197 12.0635 4.71683 12.5041 5.35742 12.7002L8.32324 13.626L15.1914 9.29395C15.5155 9.09753 15.8125 9.20323 15.5684 9.41992L10.0039 14.4414L9.7998 17.5C10.0998 17.5 10.2329 17.363 10.4004 17.2002L11.8418 15.7988L14.8398 18.0137C15.3916 18.3181 15.7902 18.1608 15.9277 17.502L17.8965 8.22559Z" fill="#2A90D9"/>
</svg>
