<svg width="24" height="24" viewBox="0 0 24 24" fill="none" xmlns="http://www.w3.org/2000/svg">
<path d="M12 0C18.6274 0 24 5.37258 24 12C24 18.6274 18.6274 24 12 24C5.37258 24 0 18.6274 0 12C0 5.37258 5.37258 0 12 0ZM7.57129 6.19336C7.23089 6.28519 6.96745 6.49109 6.75684 6.77148C6.48871 7.13266 6.31098 7.5366 6.16895 7.95898C6.01099 8.42673 5.95828 8.90205 6.03418 9.39551C6.10029 9.83132 6.24714 10.2391 6.39648 10.6504C6.64261 11.3324 6.91508 12.0012 7.2959 12.6221C7.87991 13.5782 8.60188 14.4184 9.41113 15.1885C10.0503 15.7946 10.7409 16.3377 11.5 16.7871C12.3362 17.2805 13.2451 17.6056 14.167 17.8896C14.6446 18.039 15.1422 18.0802 15.6406 17.9688C16.1891 17.8463 16.7044 17.6464 17.166 17.3232C17.3325 17.2045 17.4979 17.0573 17.6143 16.8896C17.8922 16.4856 17.9721 16.0149 17.999 15.5361C18.0087 15.3661 17.9508 15.2426 17.8076 15.1582C17.5421 14.9991 17.2792 14.8322 17.0088 14.6768C16.5043 14.3865 15.9697 14.1453 15.4922 13.8037C15.4481 13.7719 15.3939 13.75 15.3438 13.7256C15.1639 13.6351 14.9926 13.6501 14.8359 13.7822C14.7589 13.8458 14.6793 13.9117 14.6133 13.9863C14.3378 14.2961 14.0707 14.6087 13.7939 14.916C13.4965 15.2477 13.347 15.2841 12.9639 15.0674C12.5574 14.8372 12.1545 14.5962 11.7676 14.333C10.7635 13.6534 9.96873 12.7715 9.34668 11.7344C9.17893 11.454 9.02708 11.1674 8.87402 10.8809C8.77484 10.6935 8.81302 10.5161 8.95996 10.374C9.14845 10.1929 9.34861 10.0222 9.54199 9.84473C9.77339 9.63292 10.0135 9.42594 10.2314 9.20312C10.3845 9.04764 10.3899 8.8519 10.2871 8.65723C10.2369 8.57154 10.1857 8.48315 10.1318 8.39746C10.0731 8.3069 10.0033 8.22117 9.95312 8.12695C9.7572 7.77552 9.57264 7.41807 9.37305 7.07031C9.20045 6.76919 9.01808 6.47542 8.83691 6.18164C8.7561 6.04817 8.63107 6.01217 8.48535 6.02441C8.4573 6.02804 8.42892 6.02805 8.39355 6C8.11946 6.06362 7.84416 6.12118 7.57129 6.19336Z" fill="#2A90D9"/>
</svg>
