<svg width="24" height="24" viewBox="0 0 24 24" fill="none" xmlns="http://www.w3.org/2000/svg">
<path d="M12 0C18.6274 0 24 5.37258 24 12C24 18.6274 18.6274 24 12 24C5.37258 24 0 18.6274 0 12C0 5.37258 5.37258 0 12 0ZM12 7.59961C12 7.59961 7.99721 7.60034 6.99902 7.875C6.44847 8.02615 6.01447 8.47088 5.86719 9.03613C5.59977 10.061 5.59961 12.2002 5.59961 12.2002C5.59962 12.2236 5.60129 14.3439 5.86719 15.3633C6.01438 15.9288 6.44831 16.3742 6.99902 16.5254C7.99721 16.8 12 16.7998 12 16.7998C12 16.7998 16.0029 16.8 17.001 16.5254C17.5517 16.3741 17.9856 15.9287 18.1328 15.3633C18.3988 14.3439 18.4004 12.2236 18.4004 12.2002C18.4004 12.2002 18.4003 10.061 18.1328 9.03613C17.9855 8.47089 17.5515 8.02617 17.001 7.875C16.0029 7.60034 12 7.59961 12 7.59961Z" fill="#2A90D9"/>
<path d="M10.8 14.3999V10.3999L14 12.4L10.8 14.3999Z" fill="#2A90D9"/>
</svg>
