<svg width="156" height="30" viewBox="0 0 156 30" fill="none" xmlns="http://www.w3.org/2000/svg">
<path d="M4.76799 9.408H15.552V13.44H4.76799V9.408ZM5.15199 18.624H17.344V22.784H-5.72205e-06V0.383995H16.928V4.54399H5.15199V18.624ZM31.583 22.784V19.424L31.263 18.688V12.672C31.263 11.6053 30.9323 10.7733 30.271 10.176C29.631 9.57866 28.639 9.28 27.295 9.28C26.3777 9.28 25.471 9.42933 24.575 9.728C23.7003 10.0053 22.9537 10.3893 22.335 10.88L20.543 7.392C21.4817 6.73066 22.6123 6.21866 23.935 5.856C25.2577 5.49333 26.6017 5.312 27.967 5.312C30.591 5.312 32.6283 5.93066 34.079 7.168C35.5297 8.40533 36.255 10.336 36.255 12.96V22.784H31.583ZM26.335 23.04C24.991 23.04 23.839 22.816 22.879 22.368C21.919 21.8987 21.183 21.2693 20.671 20.48C20.159 19.6907 19.903 18.8053 19.903 17.824C19.903 16.8 20.1483 15.904 20.639 15.136C21.151 14.368 21.951 13.7707 23.039 13.344C24.127 12.896 25.5457 12.672 27.295 12.672H31.871V15.584H27.839C26.6657 15.584 25.855 15.776 25.407 16.16C24.9803 16.544 24.767 17.024 24.767 17.6C24.767 18.24 25.0123 18.752 25.503 19.136C26.015 19.4987 26.7083 19.68 27.583 19.68C28.415 19.68 29.1617 19.488 29.823 19.104C30.4843 18.6987 30.9643 18.112 31.263 17.344L32.031 19.648C31.6683 20.7573 31.007 21.6 30.047 22.176C29.087 22.752 27.8497 23.04 26.335 23.04ZM46.565 23.04C45.093 23.04 43.6743 22.8693 42.309 22.528C40.965 22.1653 39.8983 21.7173 39.109 21.184L40.773 17.6C41.5623 18.0907 42.4903 18.496 43.557 18.816C44.645 19.1147 45.7117 19.264 46.757 19.264C47.909 19.264 48.7197 19.1253 49.189 18.848C49.6797 18.5707 49.925 18.1867 49.925 17.696C49.925 17.2907 49.733 16.992 49.349 16.8C48.9863 16.5867 48.4957 16.4267 47.877 16.32C47.2583 16.2133 46.5757 16.1067 45.829 16C45.1037 15.8933 44.3677 15.7547 43.621 15.584C42.8743 15.392 42.1917 15.1147 41.573 14.752C40.9543 14.3893 40.453 13.8987 40.069 13.28C39.7063 12.6613 39.525 11.8613 39.525 10.88C39.525 9.792 39.8343 8.832 40.453 8C41.093 7.168 42.0103 6.51733 43.205 6.048C44.3997 5.55733 45.829 5.312 47.493 5.312C48.6663 5.312 49.861 5.44 51.077 5.696C52.293 5.952 53.3063 6.32533 54.117 6.816L52.453 10.368C51.621 9.87733 50.7783 9.54666 49.925 9.376C49.093 9.184 48.2823 9.088 47.493 9.088C46.3837 9.088 45.573 9.23733 45.061 9.536C44.549 9.83466 44.293 10.2187 44.293 10.688C44.293 11.1147 44.4743 11.4347 44.837 11.648C45.221 11.8613 45.7223 12.032 46.341 12.16C46.9597 12.288 47.6317 12.4053 48.357 12.512C49.1037 12.5973 49.8503 12.736 50.597 12.928C51.3437 13.12 52.0157 13.3973 52.613 13.76C53.2317 14.1013 53.733 14.5813 54.117 15.2C54.501 15.7973 54.693 16.5867 54.693 17.568C54.693 18.6347 54.373 19.584 53.733 20.416C53.093 21.2267 52.165 21.8667 50.949 22.336C49.7543 22.8053 48.293 23.04 46.565 23.04ZM59.6365 29.248C58.7405 29.248 57.8552 29.1093 56.9805 28.832C56.1058 28.5547 55.3912 28.1707 54.8365 27.68L56.6605 24.128C57.0445 24.4693 57.4818 24.736 57.9725 24.928C58.4845 25.12 58.9858 25.216 59.4765 25.216C60.1805 25.216 60.7352 25.0453 61.1405 24.704C61.5672 24.384 61.9512 23.84 62.2925 23.072L63.1885 20.96L63.5725 20.416L69.7485 5.568H74.5485L66.7725 23.84C66.2178 25.2267 65.5778 26.3147 64.8525 27.104C64.1485 27.8933 63.3592 28.448 62.4845 28.768C61.6312 29.088 60.6818 29.248 59.6365 29.248ZM62.5805 23.456L54.9005 5.568H60.0525L66.0045 19.968L62.5805 23.456Z" fill="#2A90D9"/>
<path d="M77.4422 23.04C76.5889 23.04 75.8529 22.752 75.2342 22.176C74.6369 21.5787 74.3382 20.8213 74.3382 19.904C74.3382 18.9867 74.6369 18.2507 75.2342 17.696C75.8529 17.12 76.5889 16.832 77.4422 16.832C78.3169 16.832 79.0529 17.12 79.6502 17.696C80.2476 18.2507 80.5462 18.9867 80.5462 19.904C80.5462 20.8213 80.2476 21.5787 79.6502 22.176C79.0529 22.752 78.3169 23.04 77.4422 23.04ZM91.9537 23.168C90.1617 23.168 88.4444 22.9333 86.8017 22.464C85.1591 21.9733 83.8364 21.344 82.8337 20.576L84.5937 16.672C85.5537 17.3547 86.6844 17.92 87.9857 18.368C89.3084 18.7947 90.6417 19.008 91.9857 19.008C93.0097 19.008 93.8311 18.912 94.4497 18.72C95.0897 18.5067 95.5591 18.2187 95.8577 17.856C96.1564 17.4933 96.3057 17.0773 96.3057 16.608C96.3057 16.0107 96.0711 15.5413 95.6017 15.2C95.1324 14.8373 94.5137 14.5493 93.7457 14.336C92.9777 14.1013 92.1244 13.888 91.1857 13.696C90.2684 13.4827 89.3404 13.2267 88.4017 12.928C87.4844 12.6293 86.6417 12.2453 85.8737 11.776C85.1057 11.3067 84.4764 10.688 83.9857 9.92C83.5164 9.152 83.2817 8.17066 83.2817 6.976C83.2817 5.696 83.6231 4.53333 84.3057 3.488C85.0097 2.42133 86.0551 1.57866 87.4417 0.959995C88.8497 0.319996 90.6097 -3.8147e-06 92.7217 -3.8147e-06C94.1297 -3.8147e-06 95.5164 0.170663 96.8817 0.511995C98.2471 0.831995 99.4524 1.32266 100.498 1.984L98.8977 5.92C97.8524 5.32266 96.8071 4.88533 95.7617 4.608C94.7164 4.30933 93.6924 4.16 92.6897 4.16C91.6871 4.16 90.8657 4.27733 90.2257 4.512C89.5857 4.74666 89.1271 5.056 88.8497 5.43999C88.5724 5.80266 88.4337 6.22933 88.4337 6.72C88.4337 7.296 88.6684 7.76533 89.1377 8.128C89.6071 8.46933 90.2257 8.74666 90.9937 8.96C91.7617 9.17333 92.6044 9.38666 93.5217 9.6C94.4604 9.81333 95.3884 10.0587 96.3057 10.336C97.2444 10.6133 98.0977 10.9867 98.8657 11.456C99.6337 11.9253 100.252 12.544 100.722 13.312C101.212 14.08 101.458 15.0507 101.458 16.224C101.458 17.4827 101.106 18.6347 100.402 19.68C99.6977 20.7253 98.6417 21.568 97.2337 22.208C95.8471 22.848 94.0871 23.168 91.9537 23.168ZM111.688 23.04C109.661 23.04 108.083 22.528 106.952 21.504C105.821 20.4587 105.256 18.912 105.256 16.864V1.76H110.248V16.8C110.248 17.5253 110.44 18.0907 110.824 18.496C111.208 18.88 111.731 19.072 112.392 19.072C113.181 19.072 113.853 18.8587 114.408 18.432L115.752 21.952C115.24 22.3147 114.621 22.592 113.896 22.784C113.192 22.9547 112.456 23.04 111.688 23.04ZM102.6 9.792V5.952H114.536V9.792H102.6ZM129.114 22.784V19.424L128.794 18.688V12.672C128.794 11.6053 128.464 10.7733 127.802 10.176C127.162 9.57866 126.17 9.28 124.826 9.28C123.909 9.28 123.002 9.42933 122.106 9.728C121.232 10.0053 120.485 10.3893 119.866 10.88L118.074 7.392C119.013 6.73066 120.144 6.21866 121.466 5.856C122.789 5.49333 124.133 5.312 125.498 5.312C128.122 5.312 130.16 5.93066 131.61 7.168C133.061 8.40533 133.786 10.336 133.786 12.96V22.784H129.114ZM123.866 23.04C122.522 23.04 121.37 22.816 120.41 22.368C119.45 21.8987 118.714 21.2693 118.202 20.48C117.69 19.6907 117.434 18.8053 117.434 17.824C117.434 16.8 117.68 15.904 118.17 15.136C118.682 14.368 119.482 13.7707 120.57 13.344C121.658 12.896 123.077 12.672 124.826 12.672H129.402V15.584H125.37C124.197 15.584 123.386 15.776 122.938 16.16C122.512 16.544 122.298 17.024 122.298 17.6C122.298 18.24 122.544 18.752 123.034 19.136C123.546 19.4987 124.24 19.68 125.114 19.68C125.946 19.68 126.693 19.488 127.354 19.104C128.016 18.6987 128.496 18.112 128.794 17.344L129.562 19.648C129.2 20.7573 128.538 21.6 127.578 22.176C126.618 22.752 125.381 23.04 123.866 23.04ZM140.168 29.248C139.272 29.248 138.386 29.1093 137.512 28.832C136.637 28.5547 135.922 28.1707 135.368 27.68L137.192 24.128C137.576 24.4693 138.013 24.736 138.504 24.928C139.016 25.12 139.517 25.216 140.008 25.216C140.712 25.216 141.266 25.0453 141.672 24.704C142.098 24.384 142.482 23.84 142.824 23.072L143.72 20.96L144.104 20.416L150.28 5.568H155.08L147.304 23.84C146.749 25.2267 146.109 26.3147 145.384 27.104C144.68 27.8933 143.89 28.448 143.016 28.768C142.162 29.088 141.213 29.248 140.168 29.248ZM143.112 23.456L135.432 5.568H140.584L146.536 19.968L143.112 23.456Z" fill="#EE685F"/>
</svg>
