<svg width="27" height="24" viewBox="0 0 27 24" fill="none" xmlns="http://www.w3.org/2000/svg">
<path d="M7.578 17.18C6.594 17.18 5.688 17.024 4.86 16.712C4.044 16.388 3.33 15.938 2.718 15.362C2.106 14.774 1.632 14.084 1.296 13.292C0.96 12.5 0.792 11.636 0.792 10.7C0.792 9.764 0.96 8.9 1.296 8.108C1.632 7.316 2.106 6.632 2.718 6.056C3.342 5.468 4.068 5.018 4.896 4.706C5.724 4.382 6.63 4.22 7.614 4.22C8.682 4.22 9.642 4.394 10.494 4.742C11.358 5.09 12.084 5.6 12.672 6.272L11.196 7.712C10.704 7.22 10.17 6.86 9.594 6.632C9.03 6.392 8.406 6.272 7.722 6.272C7.062 6.272 6.45 6.38 5.886 6.596C5.322 6.812 4.836 7.118 4.428 7.514C4.02 7.91 3.702 8.378 3.474 8.918C3.258 9.458 3.15 10.052 3.15 10.7C3.15 11.336 3.258 11.924 3.474 12.464C3.702 13.004 4.02 13.478 4.428 13.886C4.836 14.282 5.316 14.588 5.868 14.804C6.42 15.02 7.032 15.128 7.704 15.128C8.328 15.128 8.928 15.032 9.504 14.84C10.092 14.636 10.65 14.3 11.178 13.832L12.51 15.578C11.85 16.106 11.082 16.508 10.206 16.784C9.342 17.048 8.466 17.18 7.578 17.18ZM10.296 15.272V10.556H12.51V15.578L10.296 15.272ZM17.7563 9.638H24.0203V11.564H17.7563V9.638ZM17.9363 15.038H25.0463V17H15.5963V4.4H24.7943V6.362H17.9363V15.038Z" fill="#EE685F"/>
<line y1="23" x2="27" y2="23" stroke="#EE685F" stroke-width="2" stroke-dasharray="3 3"/>
</svg>
