<svg width="12" height="24" viewBox="0 0 12 24" fill="none" xmlns="http://www.w3.org/2000/svg">
<path d="M0.99 15.056H10.512V17H0.99V15.056ZM7.722 15.992C7.134 15.992 6.528 15.92 5.904 15.776C5.292 15.632 4.698 15.404 4.122 15.092C3.546 14.768 3.03 14.366 2.574 13.886C2.118 13.394 1.758 12.812 1.494 12.14C1.23 11.468 1.098 10.694 1.098 9.818C1.098 8.954 1.224 8.174 1.476 7.478C1.728 6.77 2.1 6.17 2.592 5.678C3.084 5.186 3.684 4.808 4.392 4.544C5.112 4.28 5.934 4.148 6.858 4.148C7.53 4.148 8.136 4.196 8.676 4.292C9.228 4.388 9.768 4.544 10.296 4.76V6.722C9.744 6.506 9.192 6.35 8.64 6.254C8.088 6.146 7.548 6.092 7.02 6.092C6.444 6.092 5.928 6.182 5.472 6.362C5.028 6.53 4.65 6.782 4.338 7.118C4.026 7.454 3.786 7.868 3.618 8.36C3.462 8.84 3.384 9.392 3.384 10.016C3.384 10.736 3.498 11.402 3.726 12.014C3.954 12.626 4.284 13.16 4.716 13.616C5.16 14.072 5.7 14.426 6.336 14.678C6.984 14.93 7.722 15.056 8.55 15.056L7.722 15.992ZM5.13 2.33H6.282V9.566H5.13V2.33ZM7.686 2.33H8.838V9.566H7.686V2.33Z" fill="#EE685F"/>
<line y1="23" x2="12" y2="23" stroke="#EE685F" stroke-width="2" stroke-dasharray="3 3"/>
</svg>
